PathFileType	4	(X/Y/Z)	c:/Users/goper/Files/vsCode/490R/osim_files/A06/A06_Fast_03.trc
DataRate	CameraRate	NumFrames	NumMarkers	Units                	OrigDataRate	OrigDataStartFrame	OrigNumFrames
120.00	120.00	6	36	mm	120.0	1648	2197
                Frame#	Time	LPSIS			LASIS			LTH1			LTH2			LTH3			LTH4			LLFE			LMFE			LSH1			LSH2			LSH3			LSH4			LLMAL			LMMAL			LCAL			LMTP5			LTOE			LMTP1			RPSIS			RASIS			RTH1			RTH2			RTH3			RTH4			RLFE			RMFE			RSH1			RSH2			RSH3			RSH4			RLMAL			RMMAL			RCAL			RMTP1			RTOE			RMTP5		
		X1	Y1	Z1	X2	Y2	Z2	X3	Y3	Z3	X4	Y4	Z4	X5	Y5	Z5	X6	Y6	Z6	X7	Y7	Z7	X8	Y8	Z8	X9	Y9	Z9	X10	Y10	Z10	X11	Y11	Z11	X12	Y12	Z12	X13	Y13	Z13	X14	Y14	Z14	X15	Y15	Z15	X16	Y16	Z16	X17	Y17	Z17	X18	Y18	Z18	X19	Y19	Z19	X20	Y20	Z20	X21	Y21	Z21	X22	Y22	Z22	X23	Y23	Z23	X24	Y24	Z24	X25	Y25	Z25	X26	Y26	Z26	X27	Y27	Z27	X28	Y28	Z28	X29	Y29	Z29	X30	Y30	Z30	X31	Y31	Z31	X32	Y32	Z32	X33	Y33	Z33	X34	Y34	Z34	X35	Y35	Z35	X36	Y36	Z36

1648	13.72500	-1164.39722	950.10016	406.94531	-1357.80933	903.72015	474.75339	-1172.87891	568.69263	511.29684	-1167.19214	526.81482	509.87439	-1235.64807	549.01239	507.39441	-1215.91748	506.70044	506.74246	-1159.94031	447.36444	499.79010	-1166.04370	437.12067	390.19992	-1053.00452	405.34796	510.29230	-1029.90540	364.48361	515.99182	-1103.16626	368.17493	505.85205	-1075.91272	335.73019	510.19791	-878.91895	157.20218	472.90506	-899.12109	157.98285	389.53879	-821.11084	190.88675	423.87503	-933.86621	44.42895	486.07382	-968.98724	48.11275	427.03732	-953.14453	50.95987	391.15121	-1163.38025	967.28430	274.25293	-1343.03174	940.10828	217.51315	-1308.75769	556.59143	180.11606	-1328.59924	516.61261	180.68448	-1367.69153	575.68219	187.19324	-1377.56421	532.82996	183.64214	-1385.75256	416.39984	206.56717	-1389.54004	419.24524	295.48764	-1412.24792	261.33112	221.96269	-1425.88184	216.31555	224.49257	-1470.23462	275.66452	230.92668	-1477.04431	228.10936	227.62679	-1468.57007	94.14567	214.94543	-1484.00513	104.15005	300.84134	-1421.37744	71.92190	266.83237	-1619.65417	80.57342	287.27905	-1633.18689	95.20530	246.89583	-1607.24365	72.43716	200.25684
1649	13.73333	-1177.37585	950.55774	405.46735	-1370.20337	904.83649	474.03589	-1190.89941	566.04285	512.43225	-1186.33655	523.83649	511.02011	-1253.30981	546.61542	508.61215	-1235.47009	505.59235	507.43167	-1180.22766	445.15543	500.06845	-1187.48682	434.00970	391.77545	-1072.31384	406.09955	511.25626	-1047.44238	366.32669	517.43335	-1121.30688	367.29230	507.26276	-1093.21155	335.63181	511.73151	-890.17572	163.52354	473.99268	-910.95398	163.26518	390.93500	-835.02240	201.45404	424.76236	-936.79327	46.57162	486.33636	-972.16534	48.89632	427.43668	-956.77075	52.79822	391.45355	-1177.05920	968.81543	272.89203	-1357.18762	940.63666	217.05632	-1317.00220	557.71759	178.24359	-1336.39978	517.08594	178.88675	-1376.10217	575.77747	184.89764	-1385.22131	532.66882	181.37996	-1392.02380	416.27621	204.90622	-1396.35364	419.48947	293.73456	-1415.01001	261.49347	220.91614	-1429.35657	215.77144	223.47412	-1474.66418	274.47864	229.37683	-1480.73413	226.66797	226.30064	-1470.41809	93.24142	214.36658	-1486.54675	103.52271	299.78049	-1422.97095	72.31084	266.51529	-1623.08704	77.92344	286.31055	-1634.90503	90.87971	244.93582	-1608.50415	68.34689	198.77693
1650	13.74167	-1190.28259	951.21643	404.44626	-1382.63647	906.03906	473.14780	-1211.17334	562.04675	512.37219	-1207.27161	519.68286	511.59052	-1273.03931	544.91144	509.22775	-1256.13049	503.24854	508.20535	-1202.43506	442.13013	501.44431	-1210.42712	430.24661	393.08340	-1093.62939	406.51483	512.09760	-1067.34717	367.74466	518.31134	-1141.05737	366.05557	508.54285	-1111.83496	335.00366	512.67828	-903.13055	170.71744	474.92249	-924.11292	169.00345	392.14789	-851.14410	212.96391	425.85947	-940.74121	50.02746	486.72906	-975.72723	49.78193	427.96701	-961.25958	55.21918	391.90326	-1190.26819	970.66144	271.95676	-1370.63098	941.78638	216.57825	-1325.05029	558.89185	176.60011	-1344.05054	517.76813	177.31879	-1384.53357	576.01489	182.95457	-1393.39539	533.12415	180.15341	-1398.15173	416.38849	203.48407	-1402.96826	419.85831	292.28641	-1418.89026	261.35809	219.80855	-1432.78284	215.39256	222.70453	-1478.81372	273.53717	228.14301	-1484.36255	225.45514	225.28459	-1471.99561	92.63239	213.87119	-1488.66162	103.03829	298.82776	-1424.29236	72.76460	266.22574	-1624.61902	74.03909	285.82855	-1636.56982	86.95256	243.63571	-1609.60315	64.69968	197.71410
1651	13.75000	-1202.74512	952.33765	403.60663	-1395.79724	907.71149	471.73163	-1231.29968	558.51605	512.89014	-1228.26355	516.54950	512.26978	-1293.81335	543.13391	509.54282	-1277.49915	500.68350	508.67700	-1225.76575	438.92343	502.38309	-1234.79663	426.45532	394.34201	-1116.33459	406.86584	512.62115	-1088.79504	369.05646	518.97809	-1162.43506	364.77621	509.41077	-1132.05103	334.73795	513.59009	-918.00891	178.65604	475.87372	-938.93964	175.04845	393.21799	-869.51031	224.98618	427.11569	-945.84460	54.50674	487.10172	-980.98743	51.18268	428.53619	-966.51538	58.39017	392.15170	-1203.15198	972.64703	271.31369	-1383.61426	943.39270	215.90291	-1333.31860	560.19684	175.27696	-1351.87769	518.69171	176.03772	-1392.99207	576.43561	181.48885	-1401.20117	533.48578	178.68059	-1404.28662	416.69855	202.35722	-1409.39441	420.74075	290.91891	-1422.94519	261.41064	219.12492	-1435.99451	215.37100	222.04131	-1483.01636	272.76633	227.15375	-1488.13818	224.41763	224.72801	-1473.61316	92.26794	213.52991	-1490.49951	102.73785	298.07605	-1425.54211	73.29131	265.92740	-1626.42908	71.46651	284.95023	-1638.24548	83.50073	242.98746	-1610.75476	61.48840	197.22354
1652	13.75833	-1214.89172	953.73108	402.82480	-1407.20984	908.92499	470.81882	-1251.87805	554.95953	513.35474	-1250.04663	513.22742	512.73785	-1314.85730	541.61029	509.50882	-1301.77991	500.45752	508.08075	-1250.19287	435.44028	502.82910	-1260.86621	423.63382	394.82715	-1140.46680	407.03003	513.03333	-1111.72839	370.09390	519.30988	-1184.98828	363.43689	509.79678	-1153.68542	334.40176	513.99854	-934.90259	187.03812	476.83057	-955.54846	181.11368	394.21158	-890.28717	237.15709	428.11453	-952.46515	60.20573	487.38873	-987.65009	52.87062	429.09659	-973.14331	62.18688	392.66000	-1215.37878	974.64520	270.68365	-1396.44165	945.36206	214.49382	-1341.34033	561.65631	174.15146	-1359.63147	519.74561	175.04619	-1401.02417	576.90277	180.39111	-1408.82275	533.95233	177.56421	-1410.45715	417.18710	201.53809	-1415.51880	421.32883	290.13681	-1426.89563	261.66193	218.54533	-1439.34656	215.40836	221.60754	-1487.00708	272.15439	226.68585	-1491.48340	223.75978	224.34996	-1475.29456	92.51993	213.27061	-1492.03125	102.48404	297.59506	-1426.55017	73.89151	265.67242	-1627.77173	68.79874	284.98639	-1639.75195	80.50552	242.89804	-1611.89575	59.00642	197.14397
1653	13.76667	-1226.66125	955.21606	402.11868	-1419.03467	910.40765	469.68811	-1272.83228	551.71985	513.59509	-1271.63159	510.41312	512.95422	-1336.11975	540.38153	509.25061	-1324.45837	498.89978	507.72083	-1275.12622	432.10590	502.90887	-1286.53687	420.19904	394.91486	-1165.54944	407.10593	513.15979	-1135.74023	371.03500	519.51984	-1208.63501	362.06760	509.66556	-1176.57251	334.12631	513.91949	-953.52911	195.11928	477.85535	-973.48596	187.27713	394.87128	-913.17084	248.72751	429.33514	-960.42407	66.60904	487.52527	-995.88647	54.62186	429.67569	-981.60858	66.69491	393.28125	-1227.36084	976.42755	270.12885	-1406.59253	946.58795	213.83269	-1349.50610	563.22125	173.24474	-1367.21057	520.96338	174.14088	-1409.20679	577.63086	179.66283	-1416.51221	534.63312	176.82198	-1416.33289	417.85068	200.94945	-1421.40491	421.95911	289.57513	-1430.60693	262.13800	218.16577	-1442.49878	215.69408	221.26909	-1491.05066	271.88474	226.38670	-1494.61975	223.30943	224.15198	-1476.94336	92.48598	213.62555	-1493.30249	102.23432	297.45145	-1427.29822	74.35719	265.56506	-1628.81531	66.48368	285.64493	-1641.04565	78.12959	243.37247	-1613.11938	57.19985	197.53957
